<?xml version="1.0" encoding="utf-8"?>
<!-- Generator: Adobe Illustrator 16.0.0, SVG Export Plug-In . SVG Version: 6.00 Build 0)  -->
<!DOCTYPE svg PUBLIC "-//W3C//DTD SVG 1.1//EN" "http://www.w3.org/Graphics/SVG/1.1/DTD/svg11.dtd">
<svg version="1.1" id="categorias_1_" xmlns="http://www.w3.org/2000/svg" xmlns:xlink="http://www.w3.org/1999/xlink" x="0px"
	 y="0px" width="43px" height="43px" viewBox="0 0 43 43" enable-background="new 0 0 43 43" xml:space="preserve">
<g id="categorias">
	<g>
		<path fill="#FFFFFF" d="M42.592,7.387c-0.239-0.398-0.633-0.679-1.088-0.77L17.392,0.813c-0.794-0.153-1.579,0.284-1.854,1.043
			l-9.191,23.31l3.068,1.116l8.71-22.164l20.95,5.338c-1.309,4.049-4.422,12.501-7.406,20.371c-2.602,6.867-4.1,9.218-6.945,9.698
			c-0.004-0.003-0.006-0.007-0.006-0.012c-5.817,0.814-5.712-6.589-5.712-6.589L0.431,25.434c-1.32,8.354,5.109,10.362,5.109,10.362
			l13.6,6.165c0.003,0.001,2.126,1.011,4.434,0.907c6.224-0.146,8.411-4.658,11.151-11.887c3.96-10.446,7.979-22.152,8.018-22.276
			C42.885,8.262,42.828,7.784,42.592,7.387z M31.601,16.787c0.142,0.038,0.288,0.059,0.433,0.059c0.717,0,1.372-0.477,1.573-1.2
			c0.239-0.869-0.276-1.767-1.146-2.003l-7.077-2.181c-0.859-0.238-1.768,0.272-2.006,1.141c-0.236,0.869,0.273,1.767,1.146,2.005
			L31.601,16.787z M20.543,19.133c-0.284,0.856,0.177,1.778,1.032,2.063l7.04,2.512c0.171,0.057,0.339,0.082,0.509,0.083
			c0.687,0.004,1.33-0.429,1.559-1.113c0.285-0.854-0.175-1.776-1.033-2.062l-7.037-2.51C21.751,17.821,20.83,18.281,20.543,19.133z
			 M19.924,24.911c-0.856-0.286-1.781,0.181-2.062,1.039c-0.281,0.852,0.188,1.775,1.044,2.055l7.054,2.502
			c0.17,0.057,0.34,0.082,0.512,0.082c0.685,0,1.323-0.436,1.549-1.12c0.281-0.856-0.186-1.779-1.042-2.059L19.924,24.911z
			 M19.663,9.561c-1,0-1.812,0.787-1.812,1.758s0.811,1.758,1.812,1.758c1,0,1.811-0.787,1.811-1.758S20.662,9.561,19.663,9.561z
			 M15.289,17.852c0,0.969,0.811,1.756,1.812,1.756s1.811-0.787,1.811-1.756c0-0.97-0.811-1.757-1.811-1.757
			S15.289,16.882,15.289,17.852z M12.557,24.596c0,0.971,0.811,1.756,1.812,1.756c1.001,0,1.812-0.786,1.812-1.756
			c0-0.972-0.811-1.76-1.812-1.76C13.368,22.836,12.557,23.624,12.557,24.596z"/>
	</g>
</g>
</svg>
